<svg width="300" height="117" viewBox="0 0 300 117" fill="none" xmlns="http://www.w3.org/2000/svg">
<g filter="url(#filter0_d_132_933)">
<rect x="21" y="21.0618" width="251.29" height="67.9382" rx="33.9691" fill="#43256C"/>
</g>
<rect x="25.9121" y="25.1544" width="241.467" height="59.7529" rx="29.8764" fill="#2F184E"/>
<rect x="28.3672" y="27.61" width="236.556" height="54.8417" rx="27.4208" fill="#5B328C"/>
<g filter="url(#filter1_f_132_933)">
<path d="M82.1196 63.5976C80.9345 63.5976 79.7988 63.4424 78.7124 63.132C77.6261 62.8075 76.7513 62.3913 76.0882 61.8834L77.2522 59.3015C77.8871 59.753 78.6348 60.1269 79.4954 60.4232C80.3702 60.7053 81.252 60.8464 82.1408 60.8464C82.818 60.8464 83.3612 60.7829 83.7703 60.656C84.1936 60.5149 84.504 60.3244 84.7015 60.0846C84.899 59.8447 84.9978 59.5696 84.9978 59.2592C84.9978 58.8642 84.8426 58.5538 84.5322 58.328C84.2218 58.0882 83.8127 57.8977 83.3047 57.7567C82.7968 57.6015 82.2325 57.4604 81.6117 57.3334C81.0051 57.1923 80.3913 57.023 79.7706 56.8255C79.1639 56.628 78.6066 56.374 78.0987 56.0636C77.5908 55.7532 77.1746 55.3441 76.8501 54.8362C76.5397 54.3283 76.3845 53.6793 76.3845 52.8892C76.3845 52.0427 76.6102 51.2738 77.0617 50.5825C77.5273 49.877 78.2186 49.3197 79.1357 48.9106C80.0668 48.4873 81.2308 48.2757 82.6275 48.2757C83.5587 48.2757 84.4758 48.3886 85.3787 48.6143C86.2816 48.826 87.0788 49.1504 87.7701 49.5878L86.712 52.1908C86.0206 51.7958 85.3293 51.5066 84.638 51.3232C83.9467 51.1256 83.2695 51.0269 82.6064 51.0269C81.9433 51.0269 81.4001 51.1045 80.9768 51.2597C80.5536 51.4149 80.2502 51.6194 80.0668 51.8734C79.8834 52.1132 79.7917 52.3954 79.7917 52.7199C79.7917 53.1008 79.9469 53.4112 80.2573 53.6511C80.5677 53.8768 80.9768 54.0602 81.4847 54.2013C81.9927 54.3424 82.5499 54.4835 83.1566 54.6246C83.7774 54.7656 84.3911 54.9279 84.9978 55.1113C85.6185 55.2947 86.1829 55.5416 86.6908 55.852C87.1987 56.1624 87.6078 56.5715 87.9182 57.0794C88.2427 57.5873 88.405 58.2293 88.405 59.0053C88.405 59.8377 88.1722 60.5995 87.7066 61.2908C87.241 61.9822 86.5427 62.5394 85.6115 62.9627C84.6944 63.386 83.5305 63.5976 82.1196 63.5976ZM95.3188 63.5129C94.3735 63.5129 93.527 63.3295 92.7792 62.9627C92.0456 62.5959 91.4742 62.0386 91.065 61.2908C90.6559 60.529 90.4513 59.5625 90.4513 58.3915V51.958H93.7527V57.9048C93.7527 58.8501 93.9502 59.5484 94.3453 59.9999C94.7544 60.4373 95.3258 60.656 96.0595 60.656C96.5674 60.656 97.0188 60.5501 97.4139 60.3385C97.8089 60.1128 98.1193 59.7742 98.345 59.3227C98.5708 58.8571 98.6836 58.2787 98.6836 57.5873V51.958H101.985V63.3436H98.853V60.2115L99.4243 61.1215C99.0434 61.9116 98.4791 62.5112 97.7313 62.9204C96.9977 63.3154 96.1935 63.5129 95.3188 63.5129ZM98.345 50.392C97.9359 50.392 97.5902 50.258 97.3081 49.9899C97.0259 49.7218 96.8848 49.3691 96.8848 48.9318C96.8848 48.4944 97.0259 48.1417 97.3081 47.8736C97.5902 47.6056 97.9359 47.4715 98.345 47.4715C98.7542 47.4715 99.0999 47.6056 99.382 47.8736C99.6783 48.1417 99.8264 48.4944 99.8264 48.9318C99.8264 49.3691 99.6783 49.7218 99.382 49.9899C99.0999 50.258 98.7542 50.392 98.345 50.392ZM94.0702 50.392C93.661 50.392 93.3083 50.258 93.012 49.9899C92.7298 49.7218 92.5888 49.3691 92.5888 48.9318C92.5888 48.4944 92.7298 48.1417 93.012 47.8736C93.3083 47.6056 93.661 47.4715 94.0702 47.4715C94.4793 47.4715 94.825 47.6056 95.1071 47.8736C95.3893 48.1417 95.5304 48.4944 95.5304 48.9318C95.5304 49.3691 95.3893 49.7218 95.1071 49.9899C94.825 50.258 94.4793 50.392 94.0702 50.392ZM105.044 63.3436V51.958H108.197V55.1748L107.752 54.2436C108.091 53.4394 108.634 52.8328 109.382 52.4236C110.13 52.0004 111.04 51.7887 112.112 51.7887V54.8362C111.971 54.8221 111.844 54.815 111.731 54.815C111.618 54.8009 111.498 54.7939 111.371 54.7939C110.468 54.7939 109.735 55.0549 109.17 55.5769C108.62 56.0848 108.345 56.8819 108.345 57.9683V63.3436H105.044ZM118.669 51.7887C119.981 51.7887 121.117 52.0427 122.076 52.5506C123.05 53.0585 123.805 53.7498 124.341 54.6246C124.877 55.4993 125.145 56.508 125.145 57.6508C125.145 58.7936 124.877 59.8094 124.341 60.6983C123.819 61.573 123.099 62.2643 122.182 62.7722C121.279 63.266 120.242 63.5129 119.071 63.5129C117.957 63.5129 116.948 63.2801 116.045 62.8146C115.156 62.3349 114.451 61.6506 113.929 60.7618C113.407 59.8729 113.146 58.8218 113.146 57.6085C113.146 57.4815 113.153 57.3404 113.167 57.1853C113.181 57.016 113.195 56.8608 113.209 56.7197H122.457V58.6455H114.945L116.236 58.0741C116.236 58.6525 116.355 59.1675 116.595 59.619C116.835 60.0563 117.167 60.402 117.59 60.656C118.013 60.8958 118.507 61.0157 119.071 61.0157C119.636 61.0157 120.129 60.8958 120.553 60.656C120.99 60.402 121.322 60.0493 121.547 59.5978C121.787 59.1463 121.907 58.6243 121.907 58.0318V57.5239C121.907 56.889 121.766 56.3387 121.484 55.8732C121.216 55.4076 120.828 55.0549 120.32 54.815C119.826 54.5611 119.241 54.4341 118.563 54.4341C117.971 54.4341 117.442 54.5258 116.976 54.7092C116.525 54.8926 116.102 55.1677 115.706 55.5346L113.95 53.6299C114.472 53.0232 115.128 52.5647 115.918 52.2543C116.722 51.9439 117.639 51.7887 118.669 51.7887ZM131.999 63.5129C130.659 63.5129 129.615 63.1743 128.867 62.4971C128.119 61.8058 127.745 60.7829 127.745 59.4285V49.4397H131.047V59.3862C131.047 59.8659 131.174 60.2398 131.427 60.5078C131.681 60.7618 132.027 60.8887 132.464 60.8887C132.986 60.8887 133.431 60.7477 133.798 60.4655L134.687 62.7934C134.348 63.0332 133.939 63.2167 133.459 63.3436C132.994 63.4565 132.507 63.5129 131.999 63.5129ZM125.989 54.7515V52.212H133.882V54.7515H125.989ZM136.54 63.3436V51.958H139.841V63.3436H136.54ZM138.19 50.3708C137.584 50.3708 137.09 50.1945 136.709 49.8418C136.328 49.4891 136.138 49.0517 136.138 48.5297C136.138 48.0077 136.328 47.5703 136.709 47.2176C137.09 46.8649 137.584 46.6885 138.19 46.6885C138.797 46.6885 139.291 46.8578 139.672 47.1964C140.053 47.5209 140.243 47.9442 140.243 48.4662C140.243 49.0164 140.053 49.4749 139.672 49.8418C139.305 50.1945 138.811 50.3708 138.19 50.3708ZM153.554 63.5129C152.214 63.5129 151.17 63.1743 150.422 62.4971C149.674 61.8058 149.301 60.7829 149.301 59.4285V49.4397H152.602V59.3862C152.602 59.8659 152.729 60.2398 152.983 60.5078C153.237 60.7618 153.583 60.8887 154.02 60.8887C154.542 60.8887 154.986 60.7477 155.353 60.4655L156.242 62.7934C155.903 63.0332 155.494 63.2167 155.015 63.3436C154.549 63.4565 154.062 63.5129 153.554 63.5129ZM147.544 54.7515V52.212H155.438V54.7515H147.544ZM163.394 63.5129C162.096 63.5129 160.954 63.259 159.966 62.7511C158.992 62.2432 158.238 61.5518 157.702 60.6771C157.165 59.7883 156.897 58.7795 156.897 57.6508C156.897 56.508 157.158 55.4993 157.68 54.6246C158.217 53.7357 158.943 53.0444 159.86 52.5506C160.777 52.0427 161.814 51.7887 162.971 51.7887C164.086 51.7887 165.087 52.0286 165.976 52.5083C166.879 52.9739 167.592 53.6511 168.114 54.5399C168.636 55.4146 168.897 56.4657 168.897 57.6932C168.897 57.8201 168.89 57.9683 168.876 58.1376C168.861 58.2928 168.847 58.4409 168.833 58.582H159.585V56.6562H167.098L165.828 57.2276C165.828 56.635 165.708 56.1201 165.468 55.6827C165.228 55.2453 164.897 54.9067 164.474 54.6669C164.05 54.4129 163.557 54.286 162.992 54.286C162.428 54.286 161.927 54.4129 161.49 54.6669C161.066 54.9067 160.735 55.2524 160.495 55.7039C160.255 56.1412 160.135 56.6632 160.135 57.2699V57.7778C160.135 58.3986 160.269 58.9488 160.537 59.4285C160.82 59.8941 161.208 60.2539 161.701 60.5078C162.209 60.7477 162.802 60.8676 163.479 60.8676C164.086 60.8676 164.615 60.7759 165.066 60.5925C165.532 60.4091 165.955 60.1339 166.336 59.7671L168.092 61.6718C167.57 62.2643 166.914 62.7229 166.124 63.0473C165.334 63.3577 164.424 63.5129 163.394 63.5129ZM174.925 63.5129C173.952 63.5129 173.013 63.4001 172.11 63.1743C171.222 62.9345 170.516 62.6382 169.994 62.2855L171.095 59.9153C171.617 60.2398 172.23 60.5078 172.936 60.7194C173.655 60.917 174.361 61.0157 175.052 61.0157C175.814 61.0157 176.35 60.924 176.66 60.7406C176.985 60.5572 177.147 60.3032 177.147 59.9787C177.147 59.7107 177.02 59.5132 176.766 59.3862C176.526 59.2451 176.202 59.1393 175.793 59.0687C175.384 58.9982 174.932 58.9277 174.438 58.8571C173.959 58.7866 173.472 58.6949 172.978 58.582C172.484 58.455 172.033 58.2716 171.624 58.0318C171.215 57.7919 170.883 57.4674 170.629 57.0583C170.389 56.6491 170.269 56.1201 170.269 55.4711C170.269 54.7515 170.474 54.1166 170.883 53.5664C171.306 53.0162 171.913 52.5859 172.703 52.2755C173.493 51.951 174.438 51.7887 175.539 51.7887C176.315 51.7887 177.105 51.8734 177.909 52.0427C178.713 52.212 179.383 52.4589 179.92 52.7834L178.819 55.1325C178.269 54.808 177.712 54.5893 177.147 54.4764C176.597 54.3494 176.061 54.286 175.539 54.286C174.805 54.286 174.269 54.3847 173.93 54.5822C173.592 54.7798 173.423 55.0337 173.423 55.3441C173.423 55.6263 173.542 55.8379 173.782 55.979C174.036 56.1201 174.368 56.2329 174.777 56.3176C175.186 56.4022 175.631 56.4798 176.11 56.5504C176.604 56.6068 177.098 56.6985 177.592 56.8255C178.085 56.9525 178.53 57.1359 178.925 57.3757C179.334 57.6015 179.666 57.9189 179.92 58.328C180.173 58.7231 180.3 59.2451 180.3 59.8941C180.3 60.5995 180.089 61.2273 179.666 61.7776C179.242 62.3137 178.629 62.737 177.824 63.0473C177.034 63.3577 176.068 63.5129 174.925 63.5129ZM186.993 63.5129C185.653 63.5129 184.609 63.1743 183.861 62.4971C183.113 61.8058 182.739 60.7829 182.739 59.4285V49.4397H186.041V59.3862C186.041 59.8659 186.168 60.2398 186.422 60.5078C186.676 60.7618 187.021 60.8887 187.459 60.8887C187.981 60.8887 188.425 60.7477 188.792 60.4655L189.681 62.7934C189.342 63.0332 188.933 63.2167 188.453 63.3436C187.988 63.4565 187.501 63.5129 186.993 63.5129ZM180.983 54.7515V52.212H188.877V54.7515H180.983ZM203.178 63.5129C201.88 63.5129 200.737 63.259 199.75 62.7511C198.776 62.2432 198.021 61.5518 197.485 60.6771C196.949 59.7883 196.681 58.7795 196.681 57.6508C196.681 56.508 196.942 55.4993 197.464 54.6246C198 53.7357 198.727 53.0444 199.644 52.5506C200.561 52.0427 201.598 51.7887 202.755 51.7887C203.869 51.7887 204.871 52.0286 205.76 52.5083C206.663 52.9739 207.375 53.6511 207.897 54.5399C208.419 55.4146 208.68 56.4657 208.68 57.6932C208.68 57.8201 208.673 57.9683 208.659 58.1376C208.645 58.2928 208.631 58.4409 208.617 58.582H199.369V56.6562H206.881L205.612 57.2276C205.612 56.635 205.492 56.1201 205.252 55.6827C205.012 55.2453 204.68 54.9067 204.257 54.6669C203.834 54.4129 203.34 54.286 202.776 54.286C202.211 54.286 201.711 54.4129 201.273 54.6669C200.85 54.9067 200.518 55.2524 200.279 55.7039C200.039 56.1412 199.919 56.6632 199.919 57.2699V57.7778C199.919 58.3986 200.053 58.9488 200.321 59.4285C200.603 59.8941 200.991 60.2539 201.485 60.5078C201.993 60.7477 202.585 60.8676 203.263 60.8676C203.869 60.8676 204.398 60.7759 204.85 60.5925C205.315 60.4091 205.739 60.1339 206.12 59.7671L207.876 61.6718C207.354 62.2643 206.698 62.7229 205.908 63.0473C205.118 63.3577 204.208 63.5129 203.178 63.5129ZM215.534 63.5129C214.194 63.5129 213.15 63.1743 212.402 62.4971C211.654 61.8058 211.28 60.7829 211.28 59.4285V49.4397H214.582V59.3862C214.582 59.8659 214.709 60.2398 214.963 60.5078C215.217 60.7618 215.562 60.8887 216 60.8887C216.522 60.8887 216.966 60.7477 217.333 60.4655L218.222 62.7934C217.883 63.0332 217.474 63.2167 216.994 63.3436C216.529 63.4565 216.042 63.5129 215.534 63.5129ZM209.524 54.7515V52.212H217.418V54.7515H209.524Z" fill="#FFF500"/>
</g>
<path d="M85.6858 61.5836C84.5658 61.5836 83.4924 61.437 82.4658 61.1436C81.4391 60.837 80.6124 60.4436 79.9858 59.9636L81.0858 57.5236C81.6858 57.9503 82.3924 58.3036 83.2058 58.5836C84.0324 58.8503 84.8658 58.9836 85.7058 58.9836C86.3458 58.9836 86.8591 58.9236 87.2458 58.8036C87.6458 58.6703 87.9391 58.4903 88.1258 58.2636C88.3124 58.037 88.4058 57.777 88.4058 57.4836C88.4058 57.1103 88.2591 56.817 87.9658 56.6036C87.6724 56.377 87.2858 56.197 86.8058 56.0636C86.3258 55.917 85.7924 55.7836 85.2058 55.6636C84.6324 55.5303 84.0524 55.3703 83.4658 55.1836C82.8924 54.997 82.3658 54.757 81.8858 54.4636C81.4058 54.1703 81.0124 53.7836 80.7058 53.3036C80.4124 52.8236 80.2658 52.2103 80.2658 51.4636C80.2658 50.6636 80.4791 49.937 80.9058 49.2836C81.3458 48.617 81.9991 48.0903 82.8658 47.7036C83.7458 47.3036 84.8458 47.1036 86.1658 47.1036C87.0458 47.1036 87.9124 47.2103 88.7658 47.4236C89.6191 47.6236 90.3724 47.9303 91.0258 48.3436L90.0258 50.8036C89.3724 50.4303 88.7191 50.157 88.0658 49.9836C87.4124 49.797 86.7724 49.7036 86.1458 49.7036C85.5191 49.7036 85.0058 49.777 84.6058 49.9236C84.2058 50.0703 83.9191 50.2636 83.7458 50.5036C83.5724 50.7303 83.4858 50.997 83.4858 51.3036C83.4858 51.6636 83.6324 51.957 83.9258 52.1836C84.2191 52.397 84.6058 52.5703 85.0858 52.7036C85.5658 52.837 86.0924 52.9703 86.6658 53.1036C87.2524 53.237 87.8324 53.3903 88.4058 53.5636C88.9924 53.737 89.5258 53.9703 90.0058 54.2636C90.4858 54.557 90.8724 54.9436 91.1658 55.4236C91.4724 55.9036 91.6258 56.5103 91.6258 57.2436C91.6258 58.0303 91.4058 58.7503 90.9658 59.4036C90.5258 60.057 89.8658 60.5836 88.9858 60.9836C88.1191 61.3836 87.0191 61.5836 85.6858 61.5836ZM98.1597 61.5036C97.2664 61.5036 96.4664 61.3303 95.7597 60.9836C95.0664 60.637 94.5264 60.1103 94.1397 59.4036C93.753 58.6836 93.5597 57.7703 93.5597 56.6636V50.5836H96.6797V56.2036C96.6797 57.097 96.8664 57.757 97.2397 58.1836C97.6264 58.597 98.1664 58.8036 98.8597 58.8036C99.3397 58.8036 99.7664 58.7036 100.14 58.5036C100.513 58.2903 100.806 57.9703 101.02 57.5436C101.233 57.1036 101.34 56.557 101.34 55.9036V50.5836H104.46V61.3436H101.5V58.3836L102.04 59.2436C101.68 59.9903 101.146 60.557 100.44 60.9436C99.7464 61.317 98.9864 61.5036 98.1597 61.5036ZM101.02 49.1036C100.633 49.1036 100.306 48.977 100.04 48.7236C99.773 48.4703 99.6397 48.137 99.6397 47.7236C99.6397 47.3103 99.773 46.977 100.04 46.7236C100.306 46.4703 100.633 46.3436 101.02 46.3436C101.406 46.3436 101.733 46.4703 102 46.7236C102.28 46.977 102.42 47.3103 102.42 47.7236C102.42 48.137 102.28 48.4703 102 48.7236C101.733 48.977 101.406 49.1036 101.02 49.1036ZM96.9797 49.1036C96.593 49.1036 96.2597 48.977 95.9797 48.7236C95.713 48.4703 95.5797 48.137 95.5797 47.7236C95.5797 47.3103 95.713 46.977 95.9797 46.7236C96.2597 46.4703 96.593 46.3436 96.9797 46.3436C97.3664 46.3436 97.693 46.4703 97.9597 46.7236C98.2264 46.977 98.3597 47.3103 98.3597 47.7236C98.3597 48.137 98.2264 48.4703 97.9597 48.7236C97.693 48.977 97.3664 49.1036 96.9797 49.1036ZM107.35 61.3436V50.5836H110.33V53.6236L109.91 52.7436C110.23 51.9836 110.743 51.4103 111.45 51.0236C112.157 50.6236 113.017 50.4236 114.03 50.4236V53.3036C113.897 53.2903 113.777 53.2836 113.67 53.2836C113.563 53.2703 113.45 53.2636 113.33 53.2636C112.477 53.2636 111.783 53.5103 111.25 54.0036C110.73 54.4836 110.47 55.237 110.47 56.2636V61.3436H107.35ZM120.227 50.4236C121.467 50.4236 122.541 50.6636 123.447 51.1436C124.367 51.6236 125.081 52.277 125.587 53.1036C126.094 53.9303 126.347 54.8836 126.347 55.9636C126.347 57.0436 126.094 58.0036 125.587 58.8436C125.094 59.6703 124.414 60.3236 123.547 60.8036C122.694 61.2703 121.714 61.5036 120.607 61.5036C119.554 61.5036 118.601 61.2836 117.747 60.8436C116.907 60.3903 116.241 59.7436 115.747 58.9036C115.254 58.0636 115.007 57.0703 115.007 55.9236C115.007 55.8036 115.014 55.6703 115.027 55.5236C115.041 55.3636 115.054 55.217 115.067 55.0836H123.807V56.9036H116.707L117.927 56.3636C117.927 56.9103 118.041 57.397 118.267 57.8236C118.494 58.237 118.807 58.5636 119.207 58.8036C119.607 59.0303 120.074 59.1436 120.607 59.1436C121.141 59.1436 121.607 59.0303 122.007 58.8036C122.421 58.5636 122.734 58.2303 122.947 57.8036C123.174 57.377 123.287 56.8836 123.287 56.3236V55.8436C123.287 55.2436 123.154 54.7236 122.887 54.2836C122.634 53.8436 122.267 53.5103 121.787 53.2836C121.321 53.0436 120.767 52.9236 120.127 52.9236C119.567 52.9236 119.067 53.0103 118.627 53.1836C118.201 53.357 117.801 53.617 117.427 53.9636L115.767 52.1636C116.261 51.5903 116.881 51.157 117.627 50.8636C118.387 50.5703 119.254 50.4236 120.227 50.4236ZM132.824 61.5036C131.558 61.5036 130.571 61.1836 129.864 60.5436C129.158 59.8903 128.804 58.9236 128.804 57.6436V48.2036H131.924V57.6036C131.924 58.057 132.044 58.4103 132.284 58.6636C132.524 58.9036 132.851 59.0236 133.264 59.0236C133.758 59.0236 134.178 58.8903 134.524 58.6236L135.364 60.8236C135.044 61.0503 134.658 61.2236 134.204 61.3436C133.764 61.4503 133.304 61.5036 132.824 61.5036ZM127.144 53.2236V50.8236H134.604V53.2236H127.144ZM137.116 61.3436V50.5836H140.236V61.3436H137.116ZM138.676 49.0836C138.102 49.0836 137.636 48.917 137.276 48.5836C136.916 48.2503 136.736 47.837 136.736 47.3436C136.736 46.8503 136.916 46.437 137.276 46.1036C137.636 45.7703 138.102 45.6036 138.676 45.6036C139.249 45.6036 139.716 45.7636 140.076 46.0836C140.436 46.3903 140.616 46.7903 140.616 47.2836C140.616 47.8036 140.436 48.237 140.076 48.5836C139.729 48.917 139.262 49.0836 138.676 49.0836ZM153.195 61.5036C151.929 61.5036 150.942 61.1836 150.235 60.5436C149.529 59.8903 149.175 58.9236 149.175 57.6436V48.2036H152.295V57.6036C152.295 58.057 152.415 58.4103 152.655 58.6636C152.895 58.9036 153.222 59.0236 153.635 59.0236C154.129 59.0236 154.549 58.8903 154.895 58.6236L155.735 60.8236C155.415 61.0503 155.029 61.2236 154.575 61.3436C154.135 61.4503 153.675 61.5036 153.195 61.5036ZM147.515 53.2236V50.8236H154.975V53.2236H147.515ZM162.495 61.5036C161.268 61.5036 160.188 61.2636 159.255 60.7836C158.335 60.3036 157.622 59.6503 157.115 58.8236C156.608 57.9836 156.355 57.0303 156.355 55.9636C156.355 54.8836 156.602 53.9303 157.095 53.1036C157.602 52.2636 158.288 51.6103 159.155 51.1436C160.022 50.6636 161.002 50.4236 162.095 50.4236C163.148 50.4236 164.095 50.6503 164.935 51.1036C165.788 51.5436 166.462 52.1836 166.955 53.0236C167.448 53.8503 167.695 54.8436 167.695 56.0036C167.695 56.1236 167.688 56.2636 167.675 56.4236C167.662 56.5703 167.648 56.7103 167.635 56.8436H158.895V55.0236H165.995L164.795 55.5636C164.795 55.0036 164.682 54.517 164.455 54.1036C164.228 53.6903 163.915 53.3703 163.515 53.1436C163.115 52.9036 162.648 52.7836 162.115 52.7836C161.582 52.7836 161.108 52.9036 160.695 53.1436C160.295 53.3703 159.982 53.697 159.755 54.1236C159.528 54.537 159.415 55.0303 159.415 55.6036V56.0836C159.415 56.6703 159.542 57.1903 159.795 57.6436C160.062 58.0836 160.428 58.4236 160.895 58.6636C161.375 58.8903 161.935 59.0036 162.575 59.0036C163.148 59.0036 163.648 58.917 164.075 58.7436C164.515 58.5703 164.915 58.3103 165.275 57.9636L166.935 59.7636C166.442 60.3236 165.822 60.757 165.075 61.0636C164.328 61.357 163.468 61.5036 162.495 61.5036ZM173.392 61.5036C172.472 61.5036 171.585 61.397 170.732 61.1836C169.892 60.957 169.225 60.677 168.732 60.3436L169.772 58.1036C170.265 58.4103 170.845 58.6636 171.512 58.8636C172.192 59.0503 172.859 59.1436 173.512 59.1436C174.232 59.1436 174.739 59.057 175.032 58.8836C175.339 58.7103 175.492 58.4703 175.492 58.1636C175.492 57.9103 175.372 57.7236 175.132 57.6036C174.905 57.4703 174.599 57.3703 174.212 57.3036C173.825 57.237 173.399 57.1703 172.932 57.1036C172.479 57.037 172.019 56.9503 171.552 56.8436C171.085 56.7236 170.659 56.5503 170.272 56.3236C169.885 56.097 169.572 55.7903 169.332 55.4036C169.105 55.017 168.992 54.517 168.992 53.9036C168.992 53.2236 169.185 52.6236 169.572 52.1036C169.972 51.5836 170.545 51.177 171.292 50.8836C172.039 50.577 172.932 50.4236 173.972 50.4236C174.705 50.4236 175.452 50.5036 176.212 50.6636C176.972 50.8236 177.605 51.057 178.112 51.3636L177.072 53.5836C176.552 53.277 176.025 53.0703 175.492 52.9636C174.972 52.8436 174.465 52.7836 173.972 52.7836C173.279 52.7836 172.772 52.877 172.452 53.0636C172.132 53.2503 171.972 53.4903 171.972 53.7836C171.972 54.0503 172.085 54.2503 172.312 54.3836C172.552 54.517 172.865 54.6236 173.252 54.7036C173.639 54.7836 174.059 54.857 174.512 54.9236C174.979 54.977 175.445 55.0636 175.912 55.1836C176.379 55.3036 176.799 55.477 177.172 55.7036C177.559 55.917 177.872 56.217 178.112 56.6036C178.352 56.977 178.472 57.4703 178.472 58.0836C178.472 58.7503 178.272 59.3436 177.872 59.8636C177.472 60.3703 176.892 60.7703 176.132 61.0636C175.385 61.357 174.472 61.5036 173.392 61.5036ZM184.797 61.5036C183.53 61.5036 182.544 61.1836 181.837 60.5436C181.13 59.8903 180.777 58.9236 180.777 57.6436V48.2036H183.897V57.6036C183.897 58.057 184.017 58.4103 184.257 58.6636C184.497 58.9036 184.824 59.0236 185.237 59.0236C185.73 59.0236 186.15 58.8903 186.497 58.6236L187.337 60.8236C187.017 61.0503 186.63 61.2236 186.177 61.3436C185.737 61.4503 185.277 61.5036 184.797 61.5036ZM179.117 53.2236V50.8236H186.577V53.2236H179.117ZM200.093 61.5036C198.866 61.5036 197.786 61.2636 196.853 60.7836C195.933 60.3036 195.219 59.6503 194.713 58.8236C194.206 57.9836 193.953 57.0303 193.953 55.9636C193.953 54.8836 194.199 53.9303 194.693 53.1036C195.199 52.2636 195.886 51.6103 196.753 51.1436C197.619 50.6636 198.599 50.4236 199.693 50.4236C200.746 50.4236 201.693 50.6503 202.533 51.1036C203.386 51.5436 204.059 52.1836 204.553 53.0236C205.046 53.8503 205.293 54.8436 205.293 56.0036C205.293 56.1236 205.286 56.2636 205.273 56.4236C205.259 56.5703 205.246 56.7103 205.233 56.8436H196.493V55.0236H203.592L202.393 55.5636C202.393 55.0036 202.279 54.517 202.053 54.1036C201.826 53.6903 201.513 53.3703 201.113 53.1436C200.713 52.9036 200.246 52.7836 199.713 52.7836C199.179 52.7836 198.706 52.9036 198.293 53.1436C197.893 53.3703 197.579 53.697 197.353 54.1236C197.126 54.537 197.013 55.0303 197.013 55.6036V56.0836C197.013 56.6703 197.139 57.1903 197.393 57.6436C197.659 58.0836 198.026 58.4236 198.493 58.6636C198.973 58.8903 199.533 59.0036 200.173 59.0036C200.746 59.0036 201.246 58.917 201.673 58.7436C202.113 58.5703 202.513 58.3103 202.873 57.9636L204.533 59.7636C204.039 60.3236 203.419 60.757 202.673 61.0636C201.926 61.357 201.066 61.5036 200.093 61.5036ZM211.77 61.5036C210.503 61.5036 209.516 61.1836 208.81 60.5436C208.103 59.8903 207.75 58.9236 207.75 57.6436V48.2036H210.87V57.6036C210.87 58.057 210.99 58.4103 211.23 58.6636C211.47 58.9036 211.796 59.0236 212.21 59.0236C212.703 59.0236 213.123 58.8903 213.47 58.6236L214.31 60.8236C213.99 61.0503 213.603 61.2236 213.15 61.3436C212.71 61.4503 212.25 61.5036 211.77 61.5036ZM206.09 53.2236V50.8236H213.55V53.2236H206.09Z" fill="#FFC75B"/>
<defs>
<filter id="filter0_d_132_933" x="0.53668" y="0.598447" width="298.764" height="115.413" filterUnits="userSpaceOnUse" color-interpolation-filters="sRGB">
<feFlood flood-opacity="0" result="BackgroundImageFix"/>
<feColorMatrix in="SourceAlpha" type="matrix" values="0 0 0 0 0 0 0 0 0 0 0 0 0 0 0 0 0 0 127 0" result="hardAlpha"/>
<feOffset dx="3.27413" dy="3.27413"/>
<feGaussianBlur stdDeviation="11.8687"/>
<feComposite in2="hardAlpha" operator="out"/>
<feColorMatrix type="matrix" values="0 0 0 0 0 0 0 0 0 0 0 0 0 0 0 0 0 0 0.25 0"/>
<feBlend mode="normal" in2="BackgroundImageFix" result="effect1_dropShadow_132_933"/>
<feBlend mode="normal" in="SourceGraphic" in2="effect1_dropShadow_132_933" result="shape"/>
</filter>
<filter id="filter1_f_132_933" x="57.2616" y="27.8623" width="179.787" height="54.5616" filterUnits="userSpaceOnUse" color-interpolation-filters="sRGB">
<feFlood flood-opacity="0" result="BackgroundImageFix"/>
<feBlend mode="normal" in="SourceGraphic" in2="BackgroundImageFix" result="shape"/>
<feGaussianBlur stdDeviation="9.41313" result="effect1_foregroundBlur_132_933"/>
</filter>
</defs>
</svg>
